<svg width="255" height="13" fill="none" xmlns="http://www.w3.org/2000/svg"><path d="M247.964 9.044c1.551.801 3.224 1.578 5.139 2.209a.687.687 0 00.873-.437.688.688 0 00-.437-.874c-1.818-.606-3.418-1.334-4.945-2.135a.715.715 0 00-.945.291.716.716 0 00.291.946h.024zM235.747 3.22a30.64 30.64 0 014.993 1.917c.34.17.752 0 .921-.315.17-.34 0-.752-.315-.922-1.575-.753-3.272-1.456-5.236-2.015a.698.698 0 00-.848.486.68.68 0 00.485.85zM222.39 2.08a47.111 47.111 0 013.321-.122c.727 0 1.43 0 2.085.049a.717.717 0 00.727-.655.718.718 0 00-.654-.729 61.221 61.221 0 00-2.158-.048 49.9 49.9 0 00-3.418.121.705.705 0 00.097 1.408V2.08zm-12.823 3.615c1.527-.776 3.127-1.504 4.945-2.11a.688.688 0 00.436-.874.686.686 0 00-.872-.437 32.401 32.401 0 00-5.139 2.208.688.688 0 00-.291.947c.194.34.606.485.945.29l-.024-.024zm-12.46 5.946a31.139 31.139 0 005.212-2.038.69.69 0 00-.606-1.238c-1.527.728-3.151 1.407-4.994 1.941a.7.7 0 00-.485.85.698.698 0 00.849.485h.024zM183.29 12.88a46.74 46.74 0 003.272.121c.8 0 1.552 0 2.279-.049.388 0 .679-.34.655-.728 0-.388-.34-.679-.728-.655-.703.024-1.454.049-2.23.049-1.115 0-2.181-.049-3.175-.097-.388-.024-.703.267-.752.655-.024.388.267.704.655.752l.024-.048zm-13.381-3.713a35.93 35.93 0 005.139 2.184.687.687 0 00.873-.437.688.688 0 00-.437-.874c-1.818-.582-3.418-1.31-4.945-2.087a.715.715 0 00-.945.292.716.716 0 00.291.946l.024-.024zm-12.217-5.873c1.842.534 3.466 1.213 4.993 1.966a.689.689 0 00.606-1.238 31.086 31.086 0 00-5.211-2.039.721.721 0 00-.873.462.722.722 0 00.461.873l.024-.024zm-13.333-1.238c.97-.073 1.988-.097 3.079-.097.8 0 1.576 0 2.327.049.388 0 .703-.267.727-.655a.683.683 0 00-.654-.729c-.776-.048-1.576-.048-2.4-.048-1.115 0-2.157.024-3.151.097a.706.706 0 00.097 1.408l-.025-.025zm-12.847 3.52a35.634 35.634 0 014.945-2.088.721.721 0 00.46-.874.72.72 0 00-.872-.46c-1.915.606-3.588 1.358-5.163 2.16a.712.712 0 00-.316.946.71.71 0 00.946.315zm-12.436 5.993a33.325 33.325 0 005.212-2.063.689.689 0 00-.606-1.238c-1.527.753-3.127 1.433-4.993 1.99-.364.122-.582.486-.461.874.121.364.485.583.873.461l-.025-.024zm-13.817 1.335c.97.073 1.964.097 3.03.097.873 0 1.721 0 2.521-.073.388 0 .679-.34.655-.728 0-.388-.34-.68-.727-.655-.776.048-1.6.073-2.449.073-1.042 0-2.012-.025-2.957-.097a.684.684 0 00-.727.655.683.683 0 00.654.728zm-13.405-3.64c1.576.8 3.248 1.529 5.163 2.135.364.122.752-.097.873-.46.121-.365-.097-.753-.46-.874A30.917 30.917 0 0192.483 8a.703.703 0 00-.945.315.704.704 0 00.315.947zM79.637 3.34a31.194 31.194 0 014.97 1.99.69.69 0 00.605-1.237c-1.576-.777-3.248-1.505-5.187-2.087-.364-.122-.752.097-.873.46-.121.365.097.753.46.874h.025zM66.304 2.03a52.572 52.572 0 012.837-.073c.896 0 1.745 0 2.57.073.387 0 .702-.267.726-.655a.684.684 0 00-.654-.728A46.088 46.088 0 0069.14.575c-1.019 0-2.012.024-2.934.097-.387 0-.678.364-.654.728 0 .388.364.68.727.655l.024-.024zM53.433 5.477c1.527-.777 3.127-1.48 4.969-2.038.364-.122.582-.51.46-.874-.12-.364-.509-.583-.872-.461a32.706 32.706 0 00-5.163 2.135.689.689 0 00.606 1.238zM41.02 11.495c1.94-.582 3.612-1.31 5.188-2.11a.689.689 0 00-.606-1.238c-1.527.752-3.127 1.456-4.97 2.014-.363.121-.581.51-.46.873.121.364.509.583.873.461h-.025zm-13.817 1.408c.897.048 1.818.073 2.812.073.994 0 1.867-.025 2.764-.073.387 0 .678-.34.654-.728 0-.388-.34-.68-.727-.655a50.19 50.19 0 01-5.406 0c-.388 0-.703.267-.727.655 0 .388.267.704.654.728h-.024zM13.774 9.36c1.577.777 3.25 1.529 5.188 2.111.364.121.752-.097.873-.46.121-.365-.097-.753-.46-.874-1.843-.559-3.443-1.262-4.97-2.039a.689.689 0 00-.606 1.238l-.024.024zM1.485 3.414c1.843.558 3.443 1.262 4.97 2.039a.69.69 0 00.606-1.238C5.485 3.44 3.812 2.686 1.873 2.104c-.364-.122-.752.097-.873.46-.121.365.097.753.46.875h.025v-.025z" fill="#0099CE"/></svg>