<svg width="255" height="13" viewBox="0 0 255 13" fill="none" xmlns="http://www.w3.org/2000/svg">
<path d="M247.964 9.04441C249.515 9.84524 251.188 10.6218 253.103 11.2528C253.467 11.3741 253.855 11.18 253.976 10.816C254.097 10.4519 253.903 10.0637 253.539 9.94232C251.721 9.33562 250.121 8.60759 248.594 7.80675C248.255 7.63688 247.843 7.75822 247.649 8.09796C247.479 8.43771 247.6 8.85026 247.94 9.04441H247.964ZM235.747 3.22014C237.613 3.75403 239.237 4.40926 240.74 5.13729C241.08 5.30717 241.492 5.13729 241.661 4.82181C241.831 4.48206 241.661 4.06951 241.346 3.89964C239.771 3.14734 238.074 2.44357 236.11 1.88541C235.747 1.78834 235.359 2.00675 235.262 2.37077C235.165 2.73478 235.359 3.12307 235.747 3.22014ZM222.39 2.07955C223.432 2.00675 224.523 1.95822 225.711 1.95822C226.438 1.95822 227.141 1.95822 227.796 2.00675C228.184 2.00675 228.499 1.71554 228.523 1.35152C228.523 0.963236 228.232 0.647754 227.869 0.623487C227.166 0.599219 226.463 0.574951 225.711 0.574951C224.499 0.574951 223.36 0.623487 222.293 0.696291C221.905 0.720558 221.614 1.06031 221.639 1.44859C221.663 1.83688 222.002 2.12809 222.39 2.10382V2.07955ZM209.567 5.69545C211.094 4.91888 212.694 4.19085 214.512 3.58416C214.876 3.46282 215.069 3.07453 214.948 2.71052C214.827 2.3465 214.439 2.15236 214.076 2.2737C212.161 2.90466 210.488 3.65696 208.937 4.48206C208.597 4.65194 208.452 5.08876 208.646 5.42851C208.84 5.76826 209.252 5.91386 209.591 5.71972L209.567 5.69545ZM197.107 11.6411C199.046 11.0829 200.743 10.3791 202.319 9.60257C202.658 9.43269 202.804 9.02014 202.634 8.68039C202.464 8.34064 202.052 8.19503 201.713 8.36491C200.186 9.09294 198.562 9.77244 196.719 10.3063C196.356 10.4034 196.137 10.7917 196.234 11.1557C196.331 11.5197 196.719 11.7381 197.083 11.6411H197.107ZM183.29 12.8787C184.332 12.9515 185.399 13.0001 186.562 13.0001C187.362 13.0001 188.114 13.0001 188.841 12.9515C189.229 12.9515 189.52 12.6118 189.496 12.2235C189.496 11.8352 189.156 11.544 188.768 11.5683C188.065 11.5925 187.314 11.6168 186.538 11.6168C185.423 11.6168 184.357 11.5683 183.363 11.5197C182.975 11.4955 182.66 11.7867 182.611 12.175C182.587 12.5632 182.878 12.8787 183.266 12.9273L183.29 12.8787ZM169.909 9.16575C171.46 9.96658 173.157 10.7189 175.048 11.3498C175.412 11.4712 175.8 11.277 175.921 10.913C176.042 10.549 175.848 10.1607 175.484 10.0394C173.666 9.45696 172.066 8.72893 170.539 7.95236C170.2 7.78248 169.788 7.90382 169.594 8.24357C169.424 8.58332 169.545 8.99587 169.885 9.19001L169.909 9.16575ZM157.692 3.29294C159.534 3.82683 161.158 4.50633 162.685 5.25863C163.025 5.42851 163.437 5.2829 163.606 4.94315C163.776 4.6034 163.631 4.19085 163.291 4.02098C161.716 3.24441 160.019 2.54064 158.08 1.98248C157.716 1.88541 157.328 2.07955 157.207 2.44357C157.11 2.80759 157.304 3.19587 157.668 3.31721L157.692 3.29294ZM144.359 2.05529C145.329 1.98248 146.347 1.95822 147.438 1.95822C148.238 1.95822 149.014 1.95822 149.765 2.00675C150.153 2.00675 150.468 1.73981 150.492 1.35152C150.517 0.963236 150.226 0.647754 149.838 0.623487C149.062 0.574951 148.262 0.574951 147.438 0.574951C146.323 0.574951 145.281 0.599219 144.287 0.672022C143.899 0.69629 143.608 1.03604 143.632 1.42432C143.656 1.81261 143.996 2.10382 144.384 2.07955L144.359 2.05529ZM131.512 5.57412C133.039 4.79755 134.639 4.09378 136.457 3.48708C136.821 3.36575 137.014 2.97746 136.917 2.61345C136.796 2.24943 136.408 2.05529 136.045 2.15236C134.13 2.75905 132.457 3.51135 130.882 4.31219C130.542 4.48206 130.397 4.89462 130.566 5.25863C130.736 5.59838 131.148 5.74399 131.512 5.57412ZM119.076 11.5683C121.016 10.9858 122.712 10.2821 124.288 9.5055C124.627 9.33562 124.773 8.92307 124.603 8.58332C124.434 8.24357 124.021 8.09796 123.682 8.26784C122.155 9.02014 120.555 9.69964 118.689 10.2578C118.325 10.3791 118.107 10.7432 118.228 11.1314C118.349 11.4955 118.713 11.7139 119.101 11.5925L119.076 11.5683ZM105.259 12.903C106.229 12.9758 107.223 13.0001 108.289 13.0001C109.162 13.0001 110.01 13.0001 110.81 12.9273C111.198 12.9273 111.489 12.5875 111.465 12.1992C111.465 11.8109 111.125 11.5197 110.738 11.544C109.962 11.5925 109.138 11.6168 108.289 11.6168C107.247 11.6168 106.277 11.5925 105.332 11.5197C104.944 11.4955 104.629 11.7867 104.605 12.175C104.58 12.5632 104.871 12.8787 105.259 12.903ZM91.8541 9.26282C93.4297 10.0637 95.1023 10.7917 97.0173 11.3984C97.381 11.5197 97.7688 11.3013 97.89 10.9373C98.0112 10.5733 97.793 10.185 97.4294 10.0637C95.5871 9.48123 93.9873 8.77746 92.4843 8.00089C92.145 7.83102 91.7329 7.95236 91.5389 8.31638C91.3693 8.65612 91.4905 9.06868 91.8541 9.26282ZM79.6368 3.34148C81.4791 3.89964 83.1032 4.57914 84.6061 5.33144C84.9455 5.50131 85.3576 5.3557 85.5273 5.01596C85.6969 4.67621 85.5515 4.26365 85.2121 4.09378C83.6365 3.31721 81.9639 2.58918 80.0246 2.00675C79.661 1.88541 79.2732 2.10382 79.152 2.46784C79.0308 2.83186 79.2489 3.22014 79.6125 3.34148H79.6368ZM66.3044 2.03102C67.2013 1.98248 68.1467 1.95822 69.1406 1.95822C70.0375 1.95822 70.8859 1.95821 71.7101 2.03102C72.0979 2.03102 72.413 1.76407 72.4373 1.37579C72.4615 0.987503 72.1706 0.672023 71.7828 0.647755C70.9344 0.599219 70.0617 0.574951 69.1406 0.574951C68.1225 0.574951 67.1286 0.599219 66.2074 0.672022C65.8196 0.672022 65.5287 1.03604 65.5529 1.40006C65.5529 1.78834 65.9165 2.07955 66.2802 2.05529L66.3044 2.03102ZM53.4326 5.47704C54.9598 4.70048 56.5596 3.99671 58.4019 3.43855C58.7655 3.31721 58.9837 2.92893 58.8625 2.56491C58.7413 2.20089 58.3535 1.98248 57.9898 2.10382C56.0748 2.71052 54.378 3.43855 52.8266 4.23939C52.4872 4.40926 52.3418 4.82181 52.5115 5.16156C52.6811 5.50131 53.0932 5.64692 53.4326 5.47704ZM41.0214 11.4955C42.9606 10.913 44.6332 10.185 46.2089 9.38416C46.5482 9.21428 46.6937 8.80173 46.524 8.46198C46.3543 8.12223 45.9422 7.97662 45.6029 8.1465C44.0757 8.8988 42.4758 9.60257 40.6335 10.1607C40.2699 10.2821 40.0517 10.6704 40.1729 11.0344C40.2941 11.3984 40.682 11.6168 41.0456 11.4955H41.0214ZM27.2042 12.903C28.1011 12.9515 29.0222 12.9758 30.0161 12.9758C31.01 12.9758 31.8826 12.9515 32.7795 12.903C33.1674 12.903 33.4583 12.5632 33.434 12.175C33.434 11.7867 33.0947 11.4955 32.7068 11.5197C31.8584 11.5683 30.9615 11.5925 30.0403 11.5925C29.1192 11.5925 28.1738 11.5683 27.3011 11.5197C26.9133 11.5197 26.5982 11.7867 26.5739 12.175C26.5739 12.5632 26.8406 12.8787 27.2284 12.903H27.2042ZM13.7748 9.35989C15.3505 10.1365 17.0231 10.8888 18.9623 11.4712C19.326 11.5925 19.7138 11.3741 19.835 11.0101C19.9562 10.6461 19.7381 10.2578 19.3744 10.1365C17.5321 9.5783 15.9323 8.87453 14.4051 8.09796C14.0657 7.92809 13.6536 8.0737 13.484 8.41345C13.3143 8.7532 13.4597 9.16575 13.7991 9.33562L13.7748 9.35989ZM1.48482 3.41428C3.32711 3.97244 4.92699 4.67621 6.45416 5.45278C6.79353 5.62265 7.20562 5.47704 7.3753 5.13729C7.54499 4.79755 7.39954 4.38499 7.06017 4.21512C5.48453 3.43855 3.81192 2.68625 1.87267 2.10382C1.50906 1.98248 1.12121 2.20089 1 2.56491C0.878799 2.92893 1.09697 3.31721 1.46058 3.43855H1.48482V3.41428Z" fill="#0099CE"/>
</svg>
